<svg xmlns="http://www.w3.org/2000/svg" version="1.1" xmlns:xlink="http://www.w3.org/1999/xlink" xmlns:svgjs="http://svgjs.dev/svgjs" width="100%" height="100%" viewBox="0 0 1000 600"><rect width="1000" height="600" x="0" y="0" fill="#eb2188"/><g><circle r="166.66666666666666" cx="377.64748636881507" cy="399.86974585214796" fill="#080a52" transform="matrix(0.5924707973823307,0,0,0.5924707973823305,0,63.08884077206005)"/><path d="M318.18568210470494 324.8697724005902L332.4217910787568 324.8697724005902L332.4217910787568 438.93225527805475L318.18568210470494 438.93225527805475L318.18568210470494 324.8697724005902ZM425.78115206407887 429.25343728654997Q414.45302876460465 440.4947550434995 399.28376020841216 440.4947550434995Q384.13619303785083 440.4947550434995 373.04678498031956 428.9279165020823L373.04678498031956 428.9279165020823L372.5693544964337 428.9279165020823L372.5693544964337 474.8697498832833L358.35494690801295 474.8697498832833L358.35494690801295 359.2447672403741L370.8549450315707 359.2447672403741L372.5693544964337 369.2491060163465L373.04678498031956 369.2491060163465Q384.13619303785083 357.68226747492935 399.28376020841216 357.68226747492935Q414.45302876460465 357.68226747492935 425.78115206407887 368.92358523187886Q437.10927536355314 380.18660437445953 437.10927536355314 399.0885112592144Q437.10927536355314 417.9904181439693 425.78115206407887 429.25343728654997ZM397.2655313447127 370.9635154812094L397.2655313447127 370.9635154812094Q383.2030334557103 370.9635154812094 372.5693544964337 382.68226372204487L372.5693544964337 382.68226372204487L372.5693544964337 415.49475879638396Q383.2030334557103 427.21350703721936 397.2655313447127 427.21350703721936L397.2655313447127 427.21350703721936Q408.81066850049876 427.21350703721936 415.841917445 419.87843869388166Q422.8731663895012 412.52166896491275 422.8731663895012 399.0885112592144Q422.8731663895012 385.655353553516 415.841917445 378.29858382454717Q408.81066850049876 370.9635154812094 397.2655313447127 370.9635154812094Z " fill="#eb2188" transform="matrix(0.5924707973823307,0,0,0.5924707973823305,0,63.08884077206005)"/><path d="M627.6474779115897 324.8697724005902L641.8835868856415 324.8697724005902L641.8835868856415 438.93225527805475L627.6474779115897 438.93225527805475L627.6474779115897 324.8697724005902ZM662.9773337191452 399.0885112592144Q662.9773337191452 380.490423773296 673.9148320772583 369.09719631692826Q684.8523304353714 357.68226747492935 702.8861818948792 357.68226747492935Q720.9417347400181 357.68226747492935 731.9443372550248 369.09719631692826Q742.9686411556626 380.490423773296 742.9686411556626 399.0885112592144Q742.9686411556626 417.6865987451328 731.9443372550248 429.07982620150057Q720.9417347400181 440.4947550434995 702.8861818948792 440.4947550434995Q684.8523304353714 440.4947550434995 673.9148320772583 429.07982620150057Q662.9773337191452 417.6865987451328 662.9773337191452 399.0885112592144ZM684.917434592265 420.4209733346611Q692.6648292625949 427.51732643605584 702.9729874374038 427.51732643605584Q713.2811456122129 427.51732643605584 721.0068388969116 420.4209733346611Q728.7542335672418 413.3029188476351 728.7542335672418 399.0017057166897Q728.7542335672418 384.7221939713755 721.0068388969116 377.6909450268742Q713.2811456122129 370.659696082373 702.9729874374038 370.659696082373Q692.6648292625949 370.659696082373 684.917434592265 377.6909450268742Q677.191741307566 384.7221939713755 677.191741307566 399.0017057166897Q677.191741307566 413.3029188476351 684.917434592265 420.4209733346611ZM757.9642986268055 399.0885112592144Q757.9642986268055 380.490423773296 768.9017969849186 369.09719631692826Q779.8392953430317 357.68226747492935 797.8948481881706 357.68226747492935Q815.9286996476784 357.68226747492935 826.9530035483161 369.09719631692826Q837.9773074489539 380.490423773296 837.9773074489539 399.0885112592144Q837.9773074489539 417.6865987451328 826.9530035483161 429.07982620150057Q815.9286996476784 440.4947550434995 797.8948481881706 440.4947550434995Q779.8392953430317 440.4947550434995 768.9017969849186 429.07982620150057Q757.9642986268055 417.6865987451328 757.9642986268055 399.0885112592144ZM779.9261008855564 420.4209733346611Q787.6517941702551 427.51732643605584 797.9599523450642 427.51732643605584Q808.2898119055043 427.51732643605584 816.0155051902033 420.4209733346611Q823.741198474902 413.3029188476351 823.741198474902 399.0017057166897Q823.741198474902 384.7221939713755 816.0155051902033 377.6909450268742Q808.2898119055043 370.659696082373 797.9599523450642 370.659696082373Q787.6517941702551 370.659696082373 779.9261008855564 377.6909450268742Q772.1787062152263 384.7221939713755 772.1787062152263 399.0017057166897Q772.1787062152263 413.3029188476351 779.9261008855564 420.4209733346611ZM925.2385790719153 429.25343728654997Q913.9104557724412 440.4947550434995 898.7411872162487 440.4947550434995Q883.5936200456873 440.4947550434995 872.504211988156 428.9279165020823L872.504211988156 428.9279165020823L872.0267815042702 428.9279165020823L872.0267815042702 474.8697498832833L857.8123739158494 474.8697498832833L857.8123739158494 359.2447672403741L870.3123720394073 359.2447672403741L872.0267815042702 369.2491060163465L872.504211988156 369.2491060163465Q883.5936200456873 357.68226747492935 898.7411872162487 357.68226747492935Q913.9104557724412 357.68226747492935 925.2385790719153 368.92358523187886Q936.5667023713896 380.18660437445953 936.5667023713896 399.0885112592144Q936.5667023713896 417.9904181439693 925.2385790719153 429.25343728654997ZM896.7229583525492 370.9635154812094L896.7229583525492 370.9635154812094Q882.6604604635467 370.9635154812094 872.0267815042702 382.68226372204487L872.0267815042702 382.68226372204487L872.0267815042702 415.49475879638396Q882.6604604635467 427.21350703721936 896.7229583525492 427.21350703721936L896.7229583525492 427.21350703721936Q908.2897968939664 427.21350703721936 915.3210458384675 419.87843869388166Q922.3522947829689 412.52166896491275 922.3522947829689 399.0885112592144Q922.3522947829689 385.655353553516 915.3210458384675 378.29858382454717Q908.2897968939664 370.9635154812094 896.7229583525492 370.9635154812094ZM985.3080144990123 370.659696082373Q975.3036757230399 370.659696082373 970.5510722698122 373.6978900707377Q965.7767674309533 376.73608405910244 965.7767674309533 381.3584791985431Q965.7767674309533 385.9591729523525 970.6161764267057 388.45483229993783Q975.4772868080894 390.9721930331543 982.4217302100659 392.44788725607435Q989.3661736120424 393.9235814789944 996.2455128571254 396.1154214277432Q1003.1248521022084 398.307261376492 1007.9642610979607 403.6241008561303Q1012.8036700937133 408.94094033576863 1012.8036700937133 418.14232784338753Q1012.8036700937133 427.3654167366376 1004.9260671095961 433.94093658288415Q997.0267627398476 440.4947550434995 981.4885706279252 440.4947550434995Q965.9286771303715 440.4947550434995 953.1248596079773 433.46350609899827L953.1248596079773 433.46350609899827L953.1248596079773 419.87843869388166L953.9061094906998 419.87843869388166Q966.5580173136758 427.3654167366376 981.7272858698683 427.3654167366376L981.7272858698683 427.3654167366376Q999.0666929891783 427.3654167366376 999.0666929891783 416.2760086791063L999.0666929891783 416.2760086791063Q999.0666929891783 412.673578664331 994.2272839934261 410.4166345586886Q989.3661736120424 408.15969045304627 982.5085357525905 406.59719068760154Q975.6291965075076 405.0346909221568 968.7498572624246 402.84285097340796Q961.8705180173416 400.6510110246591 957.0311090215893 395.4860812444391Q952.1917000258367 390.3428528498502 952.1917000258367 382.3784443232084L952.1917000258367 382.3784443232084Q952.1917000258367 371.44094596509535 960.0693030099538 364.5616067200123Q967.9686073797021 357.68226747492935 981.5536747848188 357.68226747492935Q995.1604435755665 357.68226747492935 1006.8791918164019 362.065947372427L1006.8791918164019 362.065947372427L1006.8791918164019 375.02167459423947L1005.7724211492119 375.02167459423947Q995.3123532749847 370.659696082373 985.3080144990123 370.659696082373ZM1073.437341547221 359.2447672403741L1073.437341547221 371.44094596509535L1050.7810949482723 371.44094596509535L1050.7810949482723 418.6197583272734Q1050.7810949482723 425.17357678788875 1054.3835249630479 426.7360765533335L1054.3835249630479 426.7360765533335Q1057.3349134088876 427.9947569199417 1062.022412705222 427.9947569199417Q1066.709912001556 427.9947569199417 1072.3522722656621 425.4990975723564L1072.3522722656621 425.4990975723564L1073.437341547221 425.4990975723564L1073.437341547221 437.0659361137736Q1066.8835230866052 440.4947550434995 1059.3748436582182 440.4947550434995L1059.3748436582182 440.4947550434995Q1036.5666873598516 440.4947550434995 1036.5666873598516 419.87843869388166L1036.5666873598516 419.87843869388166L1036.5666873598516 371.44094596509535L1021.7229395881269 371.44094596509535L1021.7229395881269 370.48608499732353L1050.7810949482723 342.05726982048213L1050.7810949482723 359.2447672403741L1073.437341547221 359.2447672403741ZM1118.7498347451178 440.4947550434995L1118.7498347451178 440.4947550434995Q1105.772406137674 440.4947550434995 1098.2854280949182 431.7490966341353Q1090.7767486665311 423.00343822477106 1090.7767486665311 409.8740999179092L1090.7767486665311 409.8740999179092L1090.7767486665311 359.2447672403741L1104.9911562549519 359.2447672403741L1104.9911562549519 408.3116001524645Q1104.9911562549519 427.3654167366376 1122.1786536748436 427.3654167366376L1122.1786536748436 427.3654167366376Q1135.7854224655912 427.3654167366376 1147.8079901052633 412.3697592654945L1147.8079901052633 412.3697592654945L1147.8079901052633 359.2447672403741L1162.022397693684 359.2447672403741L1162.022397693684 438.93225527805475L1149.5223995701263 438.93225527805475L1147.8079901052633 428.9279165020823L1147.8079901052633 426.58416685391524L1147.504170706427 426.58416685391524Q1134.8522628834507 440.4947550434995 1118.7498347451178 440.4947550434995ZM1193.2072888456846 368.92358523187886Q1204.5354121451592 357.68226747492935 1219.6829793157203 357.68226747492935Q1234.8522478719128 357.68226747492935 1245.941655929444 369.2491060163465L1245.941655929444 369.2491060163465L1246.3973850276989 369.2491060163465L1246.3973850276989 324.8697724005902L1260.633494001751 324.8697724005902L1260.633494001751 438.93225527805475L1248.1334958781931 438.93225527805475L1246.3973850276989 428.9279165020823L1245.941655929444 428.9279165020823Q1234.8522478719128 440.4947550434995 1219.6829793157203 440.4947550434995Q1204.5354121451592 440.4947550434995 1193.2072888456846 429.25343728654997Q1181.8791655462105 417.9904181439693 1181.8791655462105 399.0885112592144Q1181.8791655462105 380.18660437445953 1193.2072888456846 368.92358523187886ZM1221.722909565051 427.21350703721936L1221.722909565051 427.21350703721936Q1235.7854074540533 427.21350703721936 1246.3973850276989 415.49475879638396L1246.3973850276989 415.49475879638396L1246.3973850276989 382.68226372204487Q1235.7854074540533 370.9635154812094 1221.722909565051 370.9635154812094L1221.722909565051 370.9635154812094Q1210.156071023634 370.9635154812094 1203.1248220791326 378.29858382454717Q1196.0935731346312 385.655353553516 1196.0935731346312 399.0885112592144Q1196.0935731346312 412.52166896491275 1203.1248220791326 419.87843869388166Q1210.156071023634 427.21350703721936 1221.722909565051 427.21350703721936ZM1300.1517172361237 438.93225527805475L1285.937309647703 438.93225527805475L1285.937309647703 359.2447672403741L1300.1517172361237 359.2447672403741L1300.1517172361237 438.93225527805475ZM1285.4598791638168 327.06161234933904L1300.7810574194277 327.06161234933904L1300.7810574194277 342.3610892193186L1285.4598791638168 342.3610892193186L1285.4598791638168 327.06161234933904ZM1320.6161238863228 399.0885112592144Q1320.6161238863228 380.490423773296 1331.5536222444362 369.09719631692826Q1342.491120602549 357.68226747492935 1360.5466734476881 357.68226747492935Q1378.6022262928273 357.68226747492935 1389.6048288078337 369.09719631692826Q1400.6291327084714 380.490423773296 1400.6291327084714 399.0885112592144Q1400.6291327084714 417.6865987451328 1389.6048288078337 429.07982620150057Q1378.6022262928273 440.4947550434995 1360.5466734476881 440.4947550434995Q1342.491120602549 440.4947550434995 1331.5536222444362 429.07982620150057Q1320.6161238863228 417.6865987451328 1320.6161238863228 399.0885112592144ZM1342.577926145074 420.4209733346611Q1350.3036194297729 427.51732643605584 1360.633478990213 427.51732643605584Q1370.9416371650218 427.51732643605584 1378.6673304497203 420.4209733346611Q1386.4147251200507 413.3029188476351 1386.4147251200507 399.0017057166897Q1386.4147251200507 384.7221939713755 1378.6673304497203 377.6909450268742Q1370.9416371650218 370.659696082373 1360.633478990213 370.659696082373Q1350.3036194297729 370.659696082373 1342.577926145074 377.6909450268742Q1334.852232860375 384.7221939713755 1334.852232860375 399.0017057166897Q1334.852232860375 413.3029188476351 1342.577926145074 420.4209733346611ZM1449.370444836094 370.659696082373Q1439.3661060601216 370.659696082373 1434.6135026068941 373.6978900707377Q1429.8391977680353 376.73608405910244 1429.8391977680353 381.3584791985431Q1429.8391977680353 385.9591729523525 1434.6786067637877 388.45483229993783Q1439.5397171451714 390.9721930331543 1446.484160547148 392.44788725607435Q1453.4286039491244 393.9235814789944 1460.3079431942074 396.1154214277432Q1467.1872824392904 398.307261376492 1472.0266914350427 403.6241008561303Q1476.866100430795 408.94094033576863 1476.866100430795 418.14232784338753Q1476.866100430795 427.3654167366376 1468.9884974466781 433.94093658288415Q1461.0891930769299 440.4947550434995 1445.551000965007 440.4947550434995Q1429.9911074674533 440.4947550434995 1417.187289945059 433.46350609899827L1417.187289945059 433.46350609899827L1417.187289945059 419.87843869388166L1417.9685398277816 419.87843869388166Q1430.6204476507578 427.3654167366376 1445.7897162069503 427.3654167366376L1445.7897162069503 427.3654167366376Q1463.1291233262605 427.3654167366376 1463.1291233262605 416.2760086791063L1463.1291233262605 416.2760086791063Q1463.1291233262605 412.673578664331 1458.2897143305076 410.4166345586886Q1453.4286039491244 408.15969045304627 1446.5709660896723 406.59719068760154Q1439.6916268445893 405.0346909221568 1432.8122875995064 402.84285097340796Q1425.9329483544234 400.6510110246591 1421.093539358671 395.4860812444391Q1416.2541303629187 390.3428528498502 1416.2541303629187 382.3784443232084L1416.2541303629187 382.3784443232084Q1416.2541303629187 371.44094596509535 1424.1317333470356 364.5616067200123Q1432.0310377167843 357.68226747492935 1445.6161051219005 357.68226747492935Q1459.2228739126485 357.68226747492935 1470.9416221534839 362.065947372427L1470.9416221534839 362.065947372427L1470.9416221534839 375.02167459423947L1469.8348514862937 375.02167459423947Q1459.3747836120665 370.659696082373 1449.370444836094 370.659696082373Z " fill="#080a52" transform="matrix(0.5924707973823307,0,0,0.5924707973823305,0,63.08884077206005)"/></g></svg>